<svg version="1.1" xmlns="http://www.w3.org/2000/svg" xmlns:xlink="http://www.w3.org/1999/xlink" width="45" height="65" viewBox="0,0,45,65"><g transform="translate(-150.5,-180)"><g data-paper-data="{&quot;isPaintingLayer&quot;:true}" fill-rule="nonzero" stroke="none" stroke-width="0" stroke-linecap="butt" stroke-linejoin="miter" stroke-miterlimit="10" stroke-dasharray="" stroke-dashoffset="0" style="mix-blend-mode: normal"><path d="M195.5,222.5c0,-12.42641 -10.07359,-22.5 -22.5,-22.5c-12.42641,0 -22.5,10.07359 -22.5,22.5c0,12.42641 10.07359,22.5 22.5,22.5c12.42641,0 22.5,-10.07359 22.5,-22.5z" fill="#e00000"/><path d="M168.5,202v-22h10v22z" fill="#17e000"/><path d="M191.3,189.3c0,-2.37482 -3.58172,-4.3 -8,-4.3c-4.41828,0 -8,1.92518 -8,4.3c0,2.37482 3.58172,4.3 8,4.3c4.41828,0 8,-1.92518 8,-4.3z" fill="#17e000"/><path d="M152.63636,194.9c0,2.26437 4.08845,4.1 9.13182,4.1c5.04336,0 9.13182,-1.83563 9.13182,-4.1c0,-2.26437 -4.08845,-4.1 -9.13182,-4.1c-5.04336,0 -9.13182,1.83563 -9.13182,4.1z" fill="#17e000"/></g></g></svg>