<svg version="1.1" xmlns="http://www.w3.org/2000/svg" xmlns:xlink="http://www.w3.org/1999/xlink" width="1022.52252" height="695.1952" viewBox="0,0,1022.52252,695.1952"><g transform="translate(271.26126,167.5976)"><g data-paper-data="{&quot;isPaintingLayer&quot;:true}" fill-rule="nonzero" stroke="none" stroke-width="0" stroke-linecap="butt" stroke-linejoin="miter" stroke-miterlimit="10" stroke-dasharray="" stroke-dashoffset="0" style="mix-blend-mode: normal"><path d="M-33.5,476v-140h762v140z" fill="#35ff00"/><path d="M204.5,336.5v-318.5h87v318.5z" fill="#e0c500"/><path d="M167.5,117c-40.31679,0 -73,-30.22078 -73,-67.5c0,-37.27922 32.68321,-67.5 73,-67.5c40.31679,0 73,30.22078 73,67.5c0,37.27922 -32.68321,67.5 -73,67.5z" fill="#0ce000"/><path d="M239,185c-30.09952,0 -54.5,-23.50505 -54.5,-52.5c0,-28.99495 24.40048,-52.5 54.5,-52.5c30.09952,0 54.5,23.50505 54.5,52.5c0,28.99495 -24.40048,52.5 -54.5,52.5z" fill="#0ce000"/><path d="M269,86c-28.99495,0 -52.5,-22.60962 -52.5,-50.5c0,-27.89038 23.50505,-50.5 52.5,-50.5c28.99495,0 52.5,22.60962 52.5,50.5c0,27.89038 -23.50505,50.5 -52.5,50.5z" fill="#0ce000"/><path d="M337,109c-40.04064,0 -72.5,-20.14719 -72.5,-45c0,-24.85281 32.45936,-45 72.5,-45c40.04064,0 72.5,20.14719 72.5,45c0,24.85281 -32.45936,45 -72.5,45z" fill="#0ce000"/><path d="M246.5,104c-14.91169,0 -27,-13.65532 -27,-30.5c0,-16.84468 12.08831,-30.5 27,-30.5c14.91169,0 27,13.65532 27,30.5c0,16.84468 -12.08831,30.5 -27,30.5z" fill="#0ce000"/><path d="M324.5,149c-30.92795,0 -56,-11.6406 -56,-26c0,-14.3594 25.07205,-26 56,-26c30.92795,0 56,11.6406 56,26c0,14.3594 -25.07205,26 -56,26z" fill="#0ce000"/><path d="M281,111c-26.78581,0 -48.5,-13.2076 -48.5,-29.5c0,-16.2924 21.71419,-29.5 48.5,-29.5c26.78581,0 48.5,13.2076 48.5,29.5c0,16.2924 -21.71419,29.5 -48.5,29.5z" fill="#0ce000"/><path d="M-271.26126,527.5976v-695.1952h1022.52252v695.1952z" fill="#ffffff"/><path d="M629.63964,366.4039v-69.06907h1.5015v69.06907z" fill="#ffffff"/></g></g></svg>