<svg version="1.1" xmlns="http://www.w3.org/2000/svg" xmlns:xlink="http://www.w3.org/1999/xlink" width="303" height="220" viewBox="0,0,303,220"><g transform="translate(-96.5,-69.5)"><g data-paper-data="{&quot;isPaintingLayer&quot;:true}" fill-rule="nonzero" stroke-linejoin="miter" stroke-miterlimit="10" stroke-dasharray="" stroke-dashoffset="0" style="mix-blend-mode: normal"><path d="M98,289.5v-219h284v219z" fill="#ffffff" stroke="none" stroke-width="0" stroke-linecap="butt"/><path d="M359.5,85.83333v-16h22v16z" fill="#ff0000" stroke="none" stroke-width="0" stroke-linecap="butt"/><path d="M96.5,85.5v-16h263v16z" fill="#009cff" stroke="none" stroke-width="0" stroke-linecap="butt"/><path d="M378.83333,72.83333l-16.66667,10l5,-3.66667" fill="none" stroke="#ffffff" stroke-width="3" stroke-linecap="round"/><path d="M362.5,72.96405l14.66667,9.20261" fill="none" stroke="#ffffff" stroke-width="3" stroke-linecap="round"/><path d="M398.5,136.5v-1h1v1z" fill="#ff0000" stroke="none" stroke-width="0" stroke-linecap="butt"/><text transform="translate(111.5,117) scale(0.5,0.5)" font-size="40" xml:space="preserve" fill="#000000" fill-rule="nonzero" stroke="none" stroke-width="1" stroke-linecap="butt" stroke-linejoin="miter" stroke-miterlimit="10" stroke-dasharray="" stroke-dashoffset="0" font-family="Marker" font-weight="normal" text-anchor="start" style="mix-blend-mode: normal"><tspan x="0" dy="0">MILK SPONGE</tspan></text><path d="M130.5,196.5c2.5,0 2.5,2.5 2.5,2.5c0,9.33333 0,20.66667 0,30c0,2.59573 -0.75831,6.81601 -0.10727,9.27554c0.47386,1.7902 3.0301,3.01781 3.78277,4.49271c0.91633,1.79561 1.10828,4.09955 2.59227,5.46398c2.27824,2.27824 4.37497,5.07405 7.33061,6.52198c1.0193,0.49934 2.24453,0.53209 3.21595,1.11916c0.69872,0.42226 0.87113,1.54919 1.64238,1.81693c0.9602,0.33333 2.02738,-0.15831 3.04329,-0.1903c2.99176,-0.09421 6.00659,0 9,0c4.89588,0 10.77907,0.86536 15.59954,0.03228c1.0387,-0.17951 1.95614,-0.85345 3,-1c1.24183,-0.17434 2.5581,0.40277 3.76167,0.0507c1.43999,-0.42122 2.50725,-1.67463 3.87767,-2.28533c1.42167,-0.63353 3.05169,-0.73421 4.44679,-1.42428c1.01291,-0.50102 3.15385,-4.18649 3.38097,-4.45835c0.95938,-1.1483 2.11039,-2.12186 3.16559,-3.18279c3.36223,-3.16846 3.25693,-8.49223 4.68345,-12.74193c1.02637,-3.05761 2.96132,-5.81381 3.63055,-8.96889c0.26772,-1.26218 -0.15535,-2.58825 -0.01406,-3.87075c0.18229,-1.65469 0.81388,-3.24062 0.97999,-4.89701c0.47758,-4.76215 -0.01217,-9.95794 -0.01217,-14.75366c0,-10.22064 0.60311,-20.48664 -1.92536,-30.39366c-0.35197,-1.43363 -0.88638,-2.83445 -1.05591,-4.30088c-0.12836,-1.11032 0.53311,-2.29112 0.17157,-3.34875c-0.30497,-0.89212 -1.65866,-1.12115 -2,-2c-0.4296,-1.10609 0.04338,-2.38688 -0.15802,-3.55625c-0.37994,-2.20598 -1.54159,-6.22206 -2.68961,-8.13715c-0.5337,-0.8903 -1.59753,-1.38929 -2.10501,-2.29479c-0.7427,-1.32521 -0.6438,-3.07731 -1.57737,-4.27574c-1.71185,-2.19751 -8.28717,-1.19277 -10.16029,-1.19277c-1.80868,0 -3.6936,-0.58787 -5.42562,-0.06688c-3.73449,1.12335 -7.18647,3.35884 -11.17393,4.0346c-3.89075,0.65937 -6.87269,0.91724 -10.41369,3.04977c-0.28671,0.93228 -0.36062,1.95909 -0.86014,2.79684c-0.48284,0.80979 -1.48578,1.20977 -2,2c-1.24017,1.90585 -0.27485,2.91173 -0.65891,5.08613c-0.45162,2.55687 -2.46466,4.6408 -3.0346,7.17393c-0.32386,1.43939 0.05517,2.95029 0.06688,4.42562c0.03703,4.66581 0,9.33403 0,14c0,5.66667 0,11.33333 0,17c0,2.47531 -0.68287,5.02818 -0.06688,7.42562c0.33807,1.31574 1.33504,2.3718 1.87658,3.61767c1.83331,4.21771 2.0306,4.78917 5.62366,8.37174c0.64414,1.05648 1.24124,3.30004 3.06664,3.08497c0.91826,-0.10819 1.68423,-0.83696 2.59954,-0.96772c2.5825,-0.36893 5.27646,0.58675 7.82607,0.0346c4.12183,-0.89263 4.19865,-4.70754 6.80662,-7.33464c0.7716,-0.77726 2.04457,-0.93906 2.781,-1.74972c1.53517,-1.68991 0.48677,-7.53036 0.48677,-9.48252c0,-8.13497 -0.86845,-16.69183 1.07464,-24.60634c0,0 0.60634,-2.42536 3.0317,-1.81902c2.42536,0.60634 1.81902,3.0317 1.81902,3.0317c-1.89782,7.43602 -0.92536,15.73052 -0.92536,23.39366c0,3.87164 0.9896,9.12675 -1.51323,12.51748c-0.77749,1.05332 -2.28973,1.32809 -3.219,2.25028c-3.74704,3.71849 -3.03245,6.98972 -9.19338,8.66536c-1.92325,0.52308 -6.07952,-0.2646 -8.17393,0.0346c-1.17266,0.16752 -2.21807,1.1041 -3.40046,1.03228c-4.64839,-0.28235 -4.63827,-1.68331 -6.93336,-4.91503c-3.49978,-3.50977 -4.53433,-5.27604 -6.37634,-9.62826c-0.63267,-1.49485 -1.73784,-2.80556 -2.12342,-4.38233c-0.08637,-0.35318 -0.06688,-7.90586 -0.06688,-8.57438c0,-5.66667 0,-11.33333 0,-17c0,-4.66613 -0.03259,-9.334 0,-14c0.01298,-1.85822 -0.33236,-3.75952 0.06688,-5.57438c0.53299,-2.42286 2.58621,-4.37443 2.9654,-6.82607c0.35883,-2.31999 0.18635,-4.86993 1.34109,-6.91387c0.46375,-0.82087 1.51288,-1.19278 2,-2c0.58554,-0.97032 0.75991,-2.13544 1.13986,-3.20316c3.28343,-2.30383 6.53805,-4.25589 10.58631,-4.95023c0.98561,-0.16905 2.01311,0.16142 3,0c3.84019,-0.62813 7.19952,-2.9719 10.82607,-3.9654c0.31241,-0.08558 5.95904,-0.06688 6.57438,-0.06688c4.62916,0 10.16058,-1.04463 13.83971,2.80723c1.25378,1.31265 1.22446,3.43959 2.13654,5.00903c0.5457,0.939 1.63889,1.47941 2.18109,2.42044c1.33364,2.31468 2.88479,7.21584 3.31039,9.86285c0.12958,0.80593 -0.47059,1.68968 -0.15802,2.44375c0.36102,0.87095 1.70738,1.10375 2,2c0.87157,2.66951 0.42121,5.6294 1.11566,8.35037c2.54779,10.37751 2.07464,20.92367 2.07464,31.60634c0,4.96757 0.47032,10.31374 -0.01217,15.24634c-0.16244,1.66071 -0.79544,3.25054 -0.98117,4.9088c-0.16043,1.4323 0.25263,2.91494 -0.0529,4.32344c-0.1681,0.77495 -3.45302,8.57642 -3.79726,9.60064c-1.8114,5.3895 -1.82954,10.46659 -5.88873,14.68854c-2.36856,2.35418 -4.52231,6.72104 -7.45344,8.35886c-1.55134,0.86684 -3.4155,1.01763 -5.04005,1.73799c-1.61249,0.71502 -2.94291,2.05588 -4.6355,2.55239c-1.35575,0.3977 -2.8401,-0.15226 -4.23833,0.0507c-1.04316,0.15142 -1.95936,0.83216 -3,1c-5.14963,0.83054 -11.18535,0.03228 -16.40046,0.03228c-3.99878,0 -10.21524,1.02374 -13.95671,-0.1903c-1.01875,-0.33057 -1.43755,-1.6348 -2.35762,-2.18307c-0.83616,-0.49826 -1.91668,-0.43914 -2.78405,-0.88084c-3.50075,-1.78273 -5.94828,-4.75692 -8.66939,-7.47802c-0.80258,-0.84534 -1.86884,-1.50242 -2.40773,-2.53602c-0.63539,-1.21868 -0.39686,-2.76505 -1,-4c-1.0147,-2.07762 -3.55493,-3.292 -4.21723,-5.50729c-0.83602,-2.79634 -0.10727,-7.69697 -0.10727,-10.72446c0,-9.33333 0,-18.66667 0,-28v-2c0,0 0,-2.5 2.5,-2.5z" fill="#000000" stroke="none" stroke-width="0.5" stroke-linecap="butt"/></g></g></svg>